<svg width="336" height="65" viewBox="0 0 336 65" fill="none" xmlns="http://www.w3.org/2000/svg">
<g clip-path="url(#clip0_26020_32)">
<path fill-rule="evenodd" clip-rule="evenodd" d="M57.8681 17.283C59.275 20.6788 59.9983 24.3206 59.9983 27.9967H51.0401C51.0401 25.4959 50.5482 23.0205 49.5898 20.7114C48.6332 18.4023 47.2318 16.3029 45.4633 14.5345C43.6948 12.766 41.5972 11.3647 39.2881 10.4081C36.9789 9.45157 34.5034 8.95974 32.0025 8.95974V0C35.6787 0 39.3188 0.723289 42.7166 2.13189C46.1143 3.53869 49.1992 5.60006 51.7995 8.20028C54.3998 10.8005 56.4613 13.8853 57.8681 17.283Z" fill="black"/>
<path fill-rule="evenodd" clip-rule="evenodd" d="M51.8012 51.7997C46.55 57.0508 39.4308 60 32.0042 60V51.0421C37.0529 51.0421 41.8955 49.0367 45.465 45.4673C49.0346 41.8979 51.0418 37.0555 51.0418 32.0069H60C60 39.4315 57.0507 46.5522 51.7994 51.8033L51.8012 51.7997Z" fill="black"/>
<path fill-rule="evenodd" clip-rule="evenodd" d="M0 32.0033C0 35.6794 0.723311 39.3194 2.13196 42.717C3.5388 46.1129 5.60024 49.1995 8.20054 51.7997C10.8008 54.3999 13.8858 56.4613 17.2835 57.8681C20.6795 59.2749 24.3213 60 27.9976 60V51.0421C25.4985 51.0421 23.023 50.5502 20.712 49.5937C18.4029 48.6371 16.3034 47.234 14.5349 45.4673C12.7664 43.6989 11.365 41.6014 10.4085 39.2904C9.45187 36.9813 8.96002 34.5059 8.96002 32.0051H0V32.0033Z" fill="black"/>
<path fill-rule="evenodd" clip-rule="evenodd" d="M17.2835 2.13189C20.6795 0.723289 24.3195 0 27.9958 0V8.95793C25.4967 8.95793 23.0212 9.44977 20.7102 10.4063C18.401 11.3629 16.3016 12.766 14.5331 14.5327C12.7646 16.3011 11.3632 18.3987 10.4066 20.7096C9.45006 23.0187 8.95821 25.4941 8.95821 27.9949H0C0 24.3188 0.723311 20.6788 2.13196 17.2812C3.5388 13.8853 5.60024 10.7987 8.20054 8.19848C10.8008 5.59825 13.8858 3.53688 17.2835 2.13008V2.13189Z" fill="black"/>
<path d="M80.0001 7.11869C80.0001 6.84255 80.2239 6.61869 80.5001 6.61869H99.0381C103.638 6.61869 107.629 7.57005 111.012 9.47097C114.395 11.3737 116.993 14.0816 118.807 17.5964C120.62 21.113 121.528 25.2578 121.528 30.0345C121.528 34.8111 120.622 38.9559 118.807 42.4726C116.993 45.9892 114.395 48.697 111.012 50.5979C107.629 52.5007 103.638 53.4502 99.0381 53.4502H80.5001C80.2239 53.4502 80.0001 53.2264 80.0001 52.9502V7.11869ZM105.539 42.8372C107.396 41.6439 108.823 39.9524 109.817 37.7627C110.812 35.5729 111.31 32.9987 111.31 30.0345C111.31 27.0702 110.812 24.496 109.817 22.3062C108.823 20.1165 107.396 18.425 105.539 17.2317C103.681 16.0384 101.515 15.4409 99.0381 15.4409H90.7159C90.4398 15.4409 90.2159 15.6648 90.2159 15.9409V44.128C90.2159 44.4042 90.4398 44.628 90.7159 44.628H99.0381C101.515 44.628 103.681 44.0305 105.539 42.8372Z" fill="black"/>
<path d="M148.963 42.7176C148.964 42.7179 148.964 42.7183 148.964 42.7186C148.426 43.787 147.662 44.6353 146.666 45.258C145.427 46.0325 143.902 46.4188 142.09 46.4188C140.277 46.4188 138.894 45.9873 137.678 45.1244C136.461 44.2615 135.544 43.0249 134.925 41.4093C134.676 40.7615 134.477 40.0582 134.328 39.2994C134.269 38.9979 134.504 38.7231 134.811 38.7231H158.897C159.148 38.7231 159.36 38.5376 159.39 38.2889C159.884 34.1767 159.512 30.5178 158.273 27.3139C156.99 23.9977 154.934 21.4216 152.105 19.5857C149.274 17.7516 145.87 16.8327 141.889 16.8327C138.394 16.8327 135.311 17.6072 132.635 19.1543C129.96 20.7032 127.893 22.8911 126.433 25.7217C124.974 28.5523 124.243 31.8252 124.243 35.5386C124.243 39.252 124.972 42.5267 126.433 45.3555C127.891 48.1861 129.958 50.3759 132.635 51.923C135.311 53.4701 138.396 54.2445 141.889 54.2445C146.532 54.2445 150.347 53.1722 153.331 51.0276C155.939 49.1539 157.774 46.5938 158.846 43.3533C158.951 43.0367 158.711 42.7162 158.377 42.7162H148.964C148.963 42.7162 148.963 42.7171 148.963 42.7176ZM134.925 29.6689C134.925 29.6691 134.925 29.6691 134.925 29.6689C135.544 28.0555 136.461 26.8174 137.678 25.9546C138.892 25.0917 140.364 24.6602 142.09 24.6602C144.698 24.6602 146.7 25.5881 148.092 27.4457C148.897 28.5179 149.468 29.874 149.808 31.5075C149.871 31.8103 149.635 32.0888 149.326 32.0888H134.728C134.491 32.0888 134.312 31.8753 134.359 31.6436C134.504 30.9366 134.691 30.2773 134.924 29.6688C134.924 29.6686 134.925 29.6687 134.925 29.6689Z" fill="black"/>
<path d="M166.897 24.9274H160.963C160.687 24.9274 160.463 24.7036 160.463 24.4274V18.1307C160.463 17.8545 160.687 17.6307 160.963 17.6307H166.397C166.673 17.6307 166.897 17.4068 166.897 17.1307V12.9208C166.897 9.91326 167.814 7.68018 169.65 6.22155C171.484 4.76291 174.304 4.03179 178.108 4.03179H181.893C182.153 4.03179 182.37 4.23125 182.392 4.49049L183.105 13.0962C183.129 13.3876 182.899 13.6375 182.607 13.6375H180.099C178.906 13.6375 178.032 13.8487 177.479 14.2675C176.925 14.6881 176.651 15.5727 176.651 16.4573V17.1307C176.651 17.4068 176.875 17.6307 177.151 17.6307H196.203C196.497 17.6307 196.727 17.8831 196.701 18.1759L196.129 24.4726C196.106 24.7302 195.89 24.9274 195.631 24.9274H177.153C176.877 24.9274 176.653 25.1513 176.653 25.4274V52.952C176.653 53.2282 176.429 53.452 176.153 53.452H167.401C167.125 53.452 166.901 53.2282 166.901 52.952V24.931C166.901 24.929 166.899 24.9274 166.897 24.9274ZM186.731 4.5C186.731 4.22386 186.955 4 187.231 4H196.514C196.79 4 197.014 4.22386 197.014 4.5V13.1375C197.014 13.4136 196.79 13.6375 196.514 13.6375H187.231C186.955 13.6375 186.731 13.4136 186.731 13.1375V4.5ZM186.997 18.1307C186.997 17.8545 187.221 17.6307 187.497 17.6307H196.314C196.59 17.6307 196.814 17.8545 196.814 18.1307V52.952C196.814 53.2282 196.59 53.452 196.314 53.452H187.497C187.221 53.452 186.997 53.2282 186.997 52.952V18.1307Z" fill="black"/>
<path d="M256.62 52.7911C256.731 53.1154 256.489 53.452 256.147 53.452H246.662C246.445 53.452 246.252 53.3115 246.186 53.1044L234.153 15.4991C234.116 15.3859 234.011 15.3091 233.892 15.3091C233.773 15.3091 233.668 15.3859 233.632 15.4991L221.599 53.1044C221.533 53.3115 221.34 53.452 221.123 53.452H212.103C211.761 53.452 211.52 53.1154 211.63 52.7911L227.21 6.95957C227.279 6.75684 227.47 6.6205 227.684 6.6205H240.566C240.781 6.6205 240.971 6.75684 241.04 6.95957L256.62 52.7911ZM223.28 35.5404H243.282C243.498 35.5404 243.69 35.68 243.757 35.886L245.888 42.4482C245.993 42.7712 245.752 43.1026 245.412 43.1026H221.515C221.175 43.1026 220.934 42.7712 221.039 42.4482L223.281 35.5422C223.282 35.5413 223.281 35.5404 223.28 35.5404Z" fill="black"/>
<path d="M259.033 18.1306C259.033 17.8545 259.257 17.6306 259.533 17.6306H268.285C268.561 17.6306 268.785 17.8545 268.785 18.1306V64.6265C268.785 64.9026 268.561 65.1265 268.285 65.1265H259.533C259.257 65.1265 259.033 64.9026 259.033 64.6265V18.1306ZM288.021 19.3222C290.365 20.8476 292.19 23.003 293.493 25.7903C294.797 28.5758 295.45 31.827 295.45 35.5422C295.45 39.2574 294.797 42.4527 293.493 45.2598C292.188 48.0688 290.365 50.2351 288.021 51.7605C285.676 53.2859 282.958 54.0495 279.862 54.0495C277.385 54.0495 275.251 53.573 273.46 52.6234C271.751 51.7167 270.373 50.3739 269.328 48.5997C269.236 48.4436 269.07 48.345 268.889 48.345H266.498C266.221 48.345 265.998 48.1211 265.998 47.845V23.2377C265.998 22.9615 266.221 22.7377 266.498 22.7377H268.889C269.07 22.7377 269.236 22.6391 269.328 22.483C270.373 20.7089 271.751 19.3676 273.46 18.4592C275.251 17.5079 277.385 17.0331 279.862 17.0331C282.956 17.0331 285.676 17.7967 288.021 19.3222ZM272.731 26.3536C271.471 27.2165 270.498 28.4332 269.812 30.002C269.126 31.5725 268.783 33.4175 268.783 35.5404C268.783 37.6634 269.124 39.5101 269.812 41.0789C270.496 42.6495 271.471 43.8644 272.731 44.7273C273.991 45.5902 275.461 46.0216 277.143 46.0216C278.826 46.0216 280.295 45.5902 281.555 44.7273C282.815 43.8644 283.788 42.6495 284.474 41.0789C285.158 39.5101 285.503 37.6634 285.503 35.5404C285.503 33.4175 285.16 31.5725 284.474 30.002C283.788 28.4332 282.815 27.2165 281.555 26.3536C280.295 25.4907 278.824 25.0592 277.143 25.0592C275.462 25.0592 273.993 25.4907 272.731 26.3536Z" fill="black"/>
<path d="M299.099 18.1306C299.099 17.8545 299.322 17.6306 299.599 17.6306H308.35C308.627 17.6306 308.85 17.8545 308.85 18.1306V64.6265C308.85 64.9026 308.627 65.1265 308.35 65.1265H299.599C299.322 65.1265 299.099 64.9026 299.099 64.6265V18.1306ZM328.087 19.3222C330.43 20.8476 332.255 23.003 333.559 25.7903C334.862 28.5758 335.516 31.827 335.516 35.5422C335.516 39.2574 334.862 42.4527 333.559 45.2598C332.254 48.0688 330.43 50.2351 328.087 51.7605C325.742 53.2859 323.023 54.0495 319.927 54.0495C317.451 54.0495 315.317 53.573 313.526 52.6234C311.816 51.7167 310.439 50.3739 309.394 48.5997C309.302 48.4436 309.135 48.345 308.954 48.345H306.563C306.287 48.345 306.063 48.1211 306.063 47.845V23.2377C306.063 22.9615 306.287 22.7377 306.563 22.7377H308.954C309.135 22.7377 309.302 22.6391 309.394 22.483C310.439 20.7089 311.816 19.3676 313.526 18.4592C315.317 17.5079 317.451 17.0331 319.927 17.0331C323.022 17.0331 325.742 17.7967 328.087 19.3222ZM312.797 26.3536C311.537 27.2165 310.564 28.4332 309.878 30.002C309.192 31.5725 308.849 33.4175 308.849 35.5404C308.849 37.6634 309.192 39.5101 309.878 41.0789C310.562 42.6495 311.537 43.8644 312.797 44.7273C314.057 45.5902 315.526 46.0216 317.209 46.0216C318.891 46.0216 320.359 45.5902 321.621 44.7273C322.881 43.8644 323.854 42.6495 324.54 41.0789C325.224 39.5101 325.569 37.6634 325.569 35.5404C325.569 33.4175 325.226 31.5725 324.54 30.002C323.854 28.4332 322.881 27.2165 321.621 26.3536C320.361 25.4907 318.889 25.0592 317.209 25.0592C315.528 25.0592 314.057 25.4907 312.797 26.3536Z" fill="black"/>
</g>
<defs>
<clipPath id="clip0_26020_32">
<rect width="336" height="65" fill="white"/>
</clipPath>
</defs>
</svg>
