<svg width="60" height="60" viewBox="0 0 60 60" fill="none" xmlns="http://www.w3.org/2000/svg">
<g clip-path="url(#clip0_26021_131)">
<path fill-rule="evenodd" clip-rule="evenodd" d="M57.8681 17.283C59.275 20.6788 59.9983 24.3206 59.9983 27.9967H51.0401C51.0401 25.4959 50.5482 23.0205 49.5898 20.7114C48.6333 18.4023 47.2318 16.3029 45.4633 14.5345C43.6948 12.766 41.5972 11.3647 39.2881 10.4081C36.9789 9.45157 34.5034 8.95974 32.0025 8.95974V0C35.6787 0 39.3188 0.723289 42.7166 2.13189C46.1143 3.53869 49.1993 5.60006 51.7996 8.20028C54.3999 10.8005 56.4613 13.8853 57.8681 17.283Z" fill="black"/>
<path fill-rule="evenodd" clip-rule="evenodd" d="M51.8013 51.7997C46.55 57.0508 39.4308 60 32.0042 60V51.0421C37.0529 51.0421 41.8955 49.0367 45.4651 45.4673C49.0346 41.8979 51.0418 37.0555 51.0418 32.0069H60C60 39.4315 57.0507 46.5522 51.7995 51.8033L51.8013 51.7997Z" fill="black"/>
<path fill-rule="evenodd" clip-rule="evenodd" d="M0 32.0033C0 35.6794 0.723311 39.3194 2.13196 42.717C3.5388 46.1129 5.60024 49.1995 8.20054 51.7997C10.8008 54.3999 13.8858 56.4613 17.2835 57.8681C20.6795 59.2749 24.3213 60 27.9976 60V51.0421C25.4985 51.0421 23.023 50.5502 20.712 49.5937C18.4029 48.6371 16.3034 47.234 14.5349 45.4673C12.7664 43.6989 11.365 41.6014 10.4085 39.2904C9.45187 36.9813 8.96002 34.5059 8.96002 32.0051H0V32.0033Z" fill="black"/>
<path fill-rule="evenodd" clip-rule="evenodd" d="M17.2835 2.13189C20.6795 0.723289 24.3195 0 27.9958 0V8.95793C25.4967 8.95793 23.0212 9.44977 20.7102 10.4063C18.401 11.3629 16.3016 12.766 14.5331 14.5327C12.7646 16.3011 11.3632 18.3987 10.4066 20.7096C9.45006 23.0187 8.95821 25.4941 8.95821 27.9949H0C0 24.3188 0.723311 20.6788 2.13196 17.2812C3.5388 13.8853 5.60024 10.7987 8.20054 8.19848C10.8008 5.59825 13.8858 3.53688 17.2835 2.13008V2.13189Z" fill="black"/>
</g>
<defs>
<clipPath id="clip0_26021_131">
<rect width="60" height="60" fill="white"/>
</clipPath>
</defs>
</svg>
