<svg width="273" height="61" viewBox="0 0 273 61" fill="none" xmlns="http://www.w3.org/2000/svg">
<g clip-path="url(#clip0_26021_121)">
<path d="M6.10352e-05 3.11868C6.10352e-05 2.84254 0.223919 2.61868 0.500061 2.61868H19.0381C23.6379 2.61868 27.6293 3.57004 31.0123 5.47096C34.3953 7.37368 36.993 10.0815 38.8073 13.5963C40.6198 17.113 41.5278 21.2578 41.5278 26.0344C41.5278 30.8111 40.6216 34.9559 38.8073 38.4725C36.993 41.9892 34.3953 44.697 31.0123 46.5979C27.6293 48.5007 23.6379 49.4502 19.0381 49.4502H0.500062C0.22392 49.4502 6.10352e-05 49.2263 6.10352e-05 48.9502V3.11868ZM25.5388 38.8372C27.3964 37.6439 28.8225 35.9524 29.8172 33.7627C30.8119 31.5729 31.3101 28.9986 31.3101 26.0344C31.3101 23.0702 30.8119 20.496 29.8172 18.3062C28.8225 16.1165 27.3964 14.4249 25.5388 13.2317C23.6812 12.0384 21.5149 11.4409 19.0381 11.4409H10.7159C10.4398 11.4409 10.2159 11.6647 10.2159 11.9409V40.128C10.2159 40.4041 10.4398 40.628 10.7159 40.628H19.0381C21.5149 40.628 23.6812 40.0305 25.5388 38.8372Z" fill="black"/>
<path d="M68.9635 38.7176C68.9637 38.7179 68.9638 38.7183 68.9636 38.7186C68.4257 39.787 67.6621 40.6353 66.6658 41.258C65.4274 42.0325 63.902 42.4188 62.0895 42.4188C60.2771 42.4188 58.8942 41.9874 57.6775 41.1244C56.4608 40.2615 55.5437 39.025 54.9245 37.4093C54.6758 36.7615 54.477 36.0583 54.3279 35.2994C54.2686 34.9979 54.5039 34.7231 54.8111 34.7231H78.8974C79.1479 34.7231 79.3602 34.5376 79.3901 34.2889C79.884 30.1767 79.5118 26.5179 78.2735 23.314C76.99 19.9977 74.9338 17.4217 72.105 15.5857C69.2744 13.7516 65.8697 12.8327 61.8891 12.8327C58.3942 12.8327 55.3108 13.6072 52.6355 15.1543C49.9601 16.7032 47.8931 18.8911 46.4327 21.7217C44.974 24.5523 44.2429 27.8252 44.2429 31.5386C44.2429 35.252 44.9722 38.5267 46.4327 41.3555C47.8913 44.1861 49.9583 46.3759 52.6355 47.923C55.3108 49.4701 58.396 50.2445 61.8891 50.2445C66.5322 50.2445 70.3467 49.1722 73.3307 47.0276C75.9386 45.1539 77.774 42.5938 78.846 39.3533C78.9507 39.0367 78.7107 38.7163 78.3772 38.7163H68.964C68.9633 38.7163 68.9629 38.7171 68.9635 38.7176ZM54.9245 25.6689C54.9245 25.6691 54.9248 25.6691 54.9248 25.6689C55.544 24.0555 56.461 22.8174 57.6775 21.9546C58.8924 21.0917 60.3637 20.6603 62.0895 20.6603C64.6981 20.6603 66.7001 21.5881 68.0919 23.4457C68.8973 24.5179 69.4679 25.874 69.8078 27.5075C69.8708 27.8104 69.635 28.0888 69.3257 28.0888H54.7278C54.4913 28.0888 54.3116 27.8753 54.359 27.6436C54.5037 26.9366 54.691 26.2773 54.9242 25.6688C54.9243 25.6687 54.9245 25.6687 54.9245 25.6689Z" fill="black"/>
<path d="M86.8971 20.9274H80.9633C80.6871 20.9274 80.4633 20.7036 80.4633 20.4274V14.1307C80.4633 13.8545 80.6871 13.6307 80.9633 13.6307H86.3971C86.6733 13.6307 86.8971 13.4068 86.8971 13.1307V8.92079C86.8971 5.91326 87.8142 3.68018 89.6501 2.22155C91.4842 0.762914 94.304 0.0317919 98.1077 0.0317919H101.893C102.153 0.0317919 102.37 0.231252 102.392 0.490494L103.105 9.09617C103.129 9.3876 102.899 9.63747 102.607 9.63747H100.099C98.9056 9.63747 98.0318 9.84868 97.4794 10.2675C96.9252 10.6881 96.6508 11.5727 96.6508 12.4573V13.1307C96.6508 13.4068 96.8747 13.6307 97.1508 13.6307H116.203C116.497 13.6307 116.727 13.8831 116.701 14.1759L116.129 20.4726C116.106 20.7302 115.89 20.9274 115.631 20.9274H97.1526C96.8765 20.9274 96.6526 21.1513 96.6526 21.4274V48.952C96.6526 49.2282 96.4288 49.452 96.1526 49.452H87.4007C87.1246 49.452 86.9007 49.2282 86.9007 48.952V20.931C86.9007 20.929 86.8991 20.9274 86.8971 20.9274ZM106.731 0.499999C106.731 0.223857 106.955 0 107.231 0H116.514C116.79 0 117.014 0.223858 117.014 0.5V9.13747C117.014 9.41361 116.79 9.63747 116.514 9.63747H107.231C106.955 9.63747 106.731 9.41361 106.731 9.13747V0.499999ZM106.997 14.1307C106.997 13.8545 107.221 13.6307 107.497 13.6307H116.314C116.59 13.6307 116.814 13.8545 116.814 14.1307V48.952C116.814 49.2282 116.59 49.452 116.314 49.452H107.497C107.221 49.452 106.997 49.2282 106.997 48.952V14.1307Z" fill="black"/>
<path d="M176.62 48.7911C176.731 49.1154 176.489 49.452 176.147 49.452H166.662C166.445 49.452 166.252 49.3115 166.186 49.1044L154.153 11.4991C154.116 11.3859 154.011 11.3091 153.892 11.3091C153.773 11.3091 153.668 11.3859 153.632 11.4991L141.599 49.1044C141.533 49.3115 141.34 49.452 141.123 49.452H132.103C131.761 49.452 131.52 49.1154 131.63 48.7911L147.21 2.95957C147.279 2.75684 147.47 2.6205 147.684 2.6205H160.566C160.781 2.6205 160.971 2.75684 161.04 2.95957L176.62 48.7911ZM143.28 31.5404H163.282C163.498 31.5404 163.69 31.68 163.757 31.886L165.888 38.4482C165.993 38.7712 165.752 39.1026 165.412 39.1026H141.515C141.175 39.1026 140.934 38.7712 141.039 38.4482L143.281 31.5422C143.282 31.5413 143.281 31.5404 143.28 31.5404Z" fill="black"/>
<path d="M179.033 14.1306C179.033 13.8545 179.257 13.6306 179.533 13.6306H188.285C188.561 13.6306 188.785 13.8545 188.785 14.1306V60.6265C188.785 60.9026 188.561 61.1265 188.285 61.1265H179.533C179.257 61.1265 179.033 60.9026 179.033 60.6265V14.1306ZM208.021 15.3222C210.365 16.8476 212.19 19.003 213.493 21.7903C214.797 24.5758 215.45 27.827 215.45 31.5422C215.45 35.2574 214.797 38.4527 213.493 41.2598C212.188 44.0688 210.365 46.2351 208.021 47.7605C205.676 49.2859 202.958 50.0495 199.862 50.0495C197.385 50.0495 195.251 49.573 193.46 48.6234C191.751 47.7167 190.373 46.3739 189.328 44.5997C189.236 44.4436 189.07 44.345 188.889 44.345H186.498C186.221 44.345 185.998 44.1211 185.998 43.845V19.2377C185.998 18.9615 186.221 18.7377 186.498 18.7377H188.889C189.07 18.7377 189.236 18.6391 189.328 18.483C190.373 16.7089 191.751 15.3676 193.46 14.4592C195.251 13.5079 197.385 13.0331 199.862 13.0331C202.956 13.0331 205.676 13.7967 208.021 15.3222ZM192.731 22.3536C191.471 23.2165 190.498 24.4332 189.812 26.002C189.126 27.5725 188.783 29.4175 188.783 31.5404C188.783 33.6634 189.124 35.5101 189.812 37.0789C190.496 38.6495 191.471 39.8644 192.731 40.7273C193.991 41.5902 195.461 42.0216 197.143 42.0216C198.826 42.0216 200.295 41.5902 201.555 40.7273C202.815 39.8644 203.788 38.6495 204.474 37.0789C205.158 35.5101 205.503 33.6634 205.503 31.5404C205.503 29.4175 205.16 27.5725 204.474 26.002C203.788 24.4332 202.815 23.2165 201.555 22.3536C200.295 21.4907 198.824 21.0592 197.143 21.0592C195.462 21.0592 193.993 21.4907 192.731 22.3536Z" fill="black"/>
<path d="M219.099 14.1306C219.099 13.8545 219.322 13.6306 219.599 13.6306H228.35C228.627 13.6306 228.85 13.8545 228.85 14.1306V60.6265C228.85 60.9026 228.627 61.1265 228.35 61.1265H219.599C219.322 61.1265 219.099 60.9026 219.099 60.6265V14.1306ZM248.087 15.3222C250.43 16.8476 252.255 19.003 253.559 21.7903C254.862 24.5758 255.516 27.827 255.516 31.5422C255.516 35.2574 254.862 38.4527 253.559 41.2598C252.254 44.0688 250.43 46.2351 248.087 47.7605C245.742 49.2859 243.023 50.0495 239.927 50.0495C237.451 50.0495 235.317 49.573 233.526 48.6234C231.816 47.7167 230.439 46.3739 229.394 44.5997C229.302 44.4436 229.135 44.345 228.954 44.345H226.563C226.287 44.345 226.063 44.1211 226.063 43.845V19.2377C226.063 18.9615 226.287 18.7377 226.563 18.7377H228.954C229.135 18.7377 229.302 18.6391 229.394 18.483C230.439 16.7089 231.816 15.3676 233.526 14.4592C235.317 13.5079 237.451 13.0331 239.927 13.0331C243.022 13.0331 245.742 13.7967 248.087 15.3222ZM232.797 22.3536C231.537 23.2165 230.564 24.4332 229.878 26.002C229.192 27.5725 228.849 29.4175 228.849 31.5404C228.849 33.6634 229.192 35.5101 229.878 37.0789C230.562 38.6495 231.537 39.8644 232.797 40.7273C234.057 41.5902 235.526 42.0216 237.209 42.0216C238.891 42.0216 240.359 41.5902 241.621 40.7273C242.881 39.8644 243.854 38.6495 244.54 37.0789C245.224 35.5101 245.569 33.6634 245.569 31.5404C245.569 29.4175 245.226 27.5725 244.54 26.002C243.854 24.4332 242.881 23.2165 241.621 22.3536C240.361 21.4907 238.889 21.0592 237.209 21.0592C235.528 21.0592 234.057 21.4907 232.797 22.3536Z" fill="black"/>
<path fill-rule="evenodd" clip-rule="evenodd" d="M272.586 37.3517C272.314 36.6931 271.914 36.0944 271.409 35.59C270.905 35.0856 270.307 34.6859 269.648 34.4131C268.989 34.1403 268.283 34 267.57 34H266.43C265.717 34 265.011 34.1403 264.352 34.4131C263.693 34.6859 263.094 35.0861 262.59 35.59C262.086 36.0944 261.686 36.6926 261.413 37.3517C261.14 38.0103 261 38.7163 261 39.4296V40.5704C261 41.2831 261.14 41.9897 261.413 42.6483C261.686 43.3069 262.086 43.9056 262.59 44.41C263.094 44.9144 263.693 45.3141 264.352 45.5869C265.01 45.8597 265.716 46 266.43 46H267.57C269.01 46 270.391 45.4281 271.409 44.41C272.428 43.392 273 42.0108 273 40.5709V39.4301C273 38.7169 272.86 38.0108 272.586 37.3522V37.3517Z" fill="black"/>
</g>
<defs>
<clipPath id="clip0_26021_121">
<rect width="273" height="61" fill="white"/>
</clipPath>
</defs>
</svg>
